<svg xmlns="http://www.w3.org/2000/svg" viewBox="0 0 218 222.75"><defs><style>.cls-1{fill:#010101;}</style></defs><g id="Layer_2" data-name="Layer 2"><g id="Layer_1-2" data-name="Layer 1"><path class="cls-1" d="M217.79,190.82l-17-125.07h-50V42a42,42,0,0,0-84,0V65.75H18L.21,190.82c-2.1,17,11.88,31.93,29.9,31.93H187.89C205.91,222.75,219.89,207.82,217.79,190.82ZM85.75,43a23,23,0,0,1,46,0V65.75h-46ZM174.5,205.25H43.5c-15,0-26.57-11.6-24.83-24.81L33.4,83.52a.33.33,0,0,1,.32-.27H184.93a.32.32,0,0,1,.32.28l14.08,96.91C201.07,193.65,189.46,205.25,174.5,205.25Z"/><circle class="cls-1" cx="141.75" cy="110" r="9"/><circle class="cls-1" cx="76.75" cy="110" r="9"/></g></g></svg>