<?xml version="1.0" encoding="iso-8859-1"?>
<!-- Generator: Adobe Illustrator 19.0.0, SVG Export Plug-In . SVG Version: 6.00 Build 0)  -->
<svg version="1.1" id="Capa_1" xmlns="http://www.w3.org/2000/svg" xmlns:xlink="http://www.w3.org/1999/xlink" x="0px" y="0px"
	 viewBox="0 0 480 480" style="enable-background:new 0 0 480 480;" xml:space="preserve">
<path id="XMLID_227_" d="M412.5,0h-59.689c-16.451,0-31.029,9.87-37.139,25.145l-0.025,0.063C291.833,9.287,263.234,0,232.5,0
	C153.152,0,87.996,61.937,82.83,140H67.5c-5.523,0-10,4.477-10,10s4.477,10,10,10h15.894l25.75,274.667
	C111.566,460.511,132.968,480,158.925,480h147.149c25.958,0,47.359-19.489,49.782-45.333L381.606,160H397.5c5.523,0,10-4.477,10-10
	s-4.477-10-10-10h-15.33c-2.68-40.492-21.503-76.651-50.072-102.07l2.143-5.357C337.296,24.935,344.585,20,352.811,20H412.5
	c5.523,0,10-4.477,10-10S418.023,0,412.5,0z M335.943,432.801C334.49,448.307,321.649,460,306.075,460H158.925
	c-15.575,0-28.416-11.693-29.869-27.2L103.481,160h258.037L335.943,432.801z M362.119,140H102.881
	C108.004,72.972,164.182,20,232.5,20c28.145,0,54.227,8.988,75.53,24.248L285.729,100H272.5c-5.523,0-10,4.477-10,10s4.477,10,10,10
	h40c5.523,0,10-4.477,10-10s-4.477-10-10-10h-5.229l16.854-42.136C345.601,79.22,359.674,108.008,362.119,140z M237.5,60
	c0,5.523-4.477,10-10,10h-2c-5.523,0-10-4.477-10-10s4.477-10,10-10h2C233.023,50,237.5,54.477,237.5,60z M197.145,300.71
	l21.213-21.213l-21.213-21.213l-7.071,7.071c-3.905,3.905-10.237,3.905-14.143,0c-3.905-3.905-3.905-10.237,0-14.143l7.071-7.071
	l-7.071-7.071c-3.905-3.905-3.905-10.237,0-14.143c3.905-3.905,10.237-3.905,14.143,0l7.071,7.071l7.071-7.071
	c3.904-3.905,10.237-3.905,14.142,0c3.905,3.905,3.905,10.237,0,14.143l-7.071,7.071l21.213,21.213l21.213-21.213l-7.071-7.071
	c-3.905-3.905-3.905-10.237,0-14.143c3.905-3.905,10.238-3.905,14.142,0l7.071,7.071l7.071-7.071c3.905-3.905,10.237-3.905,14.143,0
	c3.905,3.905,3.905,10.237,0,14.143l-7.071,7.071l7.071,7.071c3.905,3.905,3.905,10.237,0,14.143
	c-3.905,3.905-10.237,3.905-14.143,0l-7.071-7.071l-21.213,21.213l21.213,21.213l7.071-7.071c3.905-3.905,10.237-3.906,14.142,0
	s3.906,10.237,0,14.142l-7.071,7.072l7.071,7.071c3.905,3.905,3.905,10.237,0,14.142c-1.953,1.952-4.512,2.929-7.071,2.929
	s-5.119-0.977-7.071-2.929l-7.071-7.071l-7.071,7.071c-3.905,3.905-10.236,3.906-14.143,0c-3.905-3.905-3.905-10.237,0-14.142
	l7.071-7.071L232.5,293.64l-21.213,21.213l7.071,7.071c3.905,3.905,3.905,10.237,0,14.142c-3.905,3.905-10.236,3.906-14.143,0
	l-7.071-7.071l-7.071,7.071c-3.905,3.904-10.237,3.904-14.143,0c-3.905-3.905-3.905-10.237,0-14.142l7.071-7.071l-7.071-7.072
	c-3.905-3.905-3.905-10.237,0-14.142c3.905-3.904,10.236-3.905,14.142,0L197.145,300.71z M195.484,65.148
	c2.68,4.829,0.937,10.917-3.892,13.596c-14.002,7.77-25.014,20.202-31.007,35.008c-1.575,3.89-5.319,6.25-9.273,6.25
	c-1.25,0-2.519-0.235-3.749-0.733c-5.12-2.072-7.59-7.902-5.518-13.021c7.704-19.032,21.854-35.01,39.842-44.992
	C186.718,58.576,192.805,60.319,195.484,65.148z"/>
<g>
</g>
<g>
</g>
<g>
</g>
<g>
</g>
<g>
</g>
<g>
</g>
<g>
</g>
<g>
</g>
<g>
</g>
<g>
</g>
<g>
</g>
<g>
</g>
<g>
</g>
<g>
</g>
<g>
</g>
</svg>
